<?xml version="1.0" encoding="UTF-8"?>
<svg version="1.1" viewBox="0 0 1600 1600" width="1280" height="1280" xmlns="http://www.w3.org/2000/svg">
<path transform="translate(665,873)" d="m0 0c1.26 1.8 1.26 1.8 2.69 4.31 3.29 5.68 6.78 11.2 10.3 16.8 0.59 0.93 1.18 1.86 1.79 2.82 10.6 16.6 21.8 32.8 34.2 48.1 0.77 0.97 1.54 1.93 2.34 2.93 4.71 5.84 9.64 11.4 14.8 16.9 1.87 2.21 1.87 2.21 1.87 4.21 0.99 0.33 1.98 0.66 3 1 1.72 1.74 1.72 1.74 3.5 3.88 2.5 2.97 2.5 2.97 5.22 5.75 1.28 1.37 1.28 1.37 1.28 3.37 0.56 0.23 1.11 0.45 1.69 0.69 2.97 1.68 4.96 3.84 7.31 6.31l2.5 2.5c1.64 1.64 3.26 3.28 4.88 4.94 2.64 2.58 5.39 4.91 8.26 7.23 0.45 0.44 0.9 0.88 1.36 1.33v2c0.64 0.27 1.28 0.54 1.94 0.81 2.06 1.19 2.06 1.19 3.06 4.19 0.72 0.27 1.43 0.55 2.17 0.83 3.82 1.58 6.21 4.06 9.14 6.92 4.03 3.81 8.01 7.46 12.5 10.7 3.54 2.56 6.97 5.27 10.4 7.96 2.65 2.05 5.31 3.99 8.14 5.78 0.86 0.6 1.72 1.2 2.6 1.82v2c0.73 0.27 1.46 0.53 2.21 0.81 2.76 1.18 5.01 2.55 7.48 4.25 3.07 2.12 3.07 2.12 6.31 3.94v2c0.89 0.25 1.77 0.49 2.69 0.75 3.5 1.32 5.48 2.83 8.31 5.25 1.14 0.87 2.28 1.72 3.44 2.56 0.8 0.59 0.8 0.59 1.62 1.19 2.03 1.36 2.03 1.36 4.73 2.64 3.52 1.77 6.85 3.79 10.2 5.86 6.14 3.74 12.4 7.05 18.9 10.2 2.66 1.31 5.25 2.7 7.83 4.17 4.07 2.31 8.28 4.23 12.6 6.13 2.65 1.2 5.23 2.49 7.82 3.81 7.55 3.81 15.4 6.67 23.4 9.41 2.54 1.03 2.54 1.03 5.07 2.56 2.42 1.44 4.45 2.19 7.16 2.91 5.27 1.49 10.2 3.47 15.3 5.56 6.37 2.59 12.8 4.34 19.5 6.04 2.96 0.81 5.65 1.82 8.49 2.96 1.58 0.35 3.16 0.66 4.75 0.94 3.2 0.6 6.19 1.32 9.25 2.44 4.63 1.62 9.34 2.68 14.1 3.74 0.77 0.18 1.53 0.35 2.32 0.52 3.51 0.77 6.99 1.45 10.6 1.91 3.01 0.45 3.01 0.45 4.01 1.45 1.38 0.27 2.77 0.49 4.16 0.68 0.85 0.13 1.71 0.25 2.6 0.38 1.36 0.19 1.36 0.19 2.74 0.38 9.91 1.38 9.91 1.38 14.7 2.56 6.45 1.5 13.1 1.94 19.6 2.56 2.6 0.25 5.2 0.5 7.8 0.76 1.14 0.1 2.28 0.21 3.46 0.32 2.86 0.36 2.86 0.36 5.86 1.36 2.42 0.24 4.82 0.42 7.25 0.55 0.78 0.05 1.55 0.09 2.35 0.13 11.7 0.56 23.5 0.47 35.2 0.45 3.44-0.01 6.88 0 10.3 0 18.1 0.03 18.1 0.03 36.2-0.58 1.15-0.05 1.15-0.05 2.33-0.11 3.8-0.19 3.8-0.19 7.35-1.44 2.24-0.28 4.48-0.51 6.73-0.72 0.67-0.06 1.34-0.12 2.03-0.19 2.14-0.2 4.28-0.4 6.43-0.59 2.12-0.2 4.25-0.39 6.37-0.59 1.95-0.18 3.89-0.36 5.83-0.54 6.24-0.11 6.24-0.11 11.6-2.37 2.27-0.33 4.54-0.61 6.81-0.88 5.95-0.73 11.6-1.84 17.4-3.39 2.63-0.7 5.27-1.29 7.93-1.85 3.58-0.47 3.58-0.47 4.81-1.88 2.14-0.45 4.29-0.86 6.44-1.25 16.4-3.16 32.1-8.47 47.9-13.8 2.46-0.84 4.92-1.66 7.39-2.47 4.11-1.37 8.17-2.84 12.2-4.38 1.04-0.39 1.04-0.39 2.1-0.79 1.37-0.52 2.74-1.04 4.11-1.57l4.68-1.77c5.61-2.16 10.9-4.76 16.3-7.48 4.62-2.32 9.36-4.37 14.1-6.41 4.51-1.95 8.77-4.12 13-6.55 4.22-2.31 8.55-4.43 12.9-6.55 4.38-2.16 8.63-4.48 12.8-6.94 2.5 2.5 2.33 3.52 2.56 6.98 0.08 1 0.15 2 0.23 3.03 0.07 1.05 0.14 2.1 0.21 3.18 0.14 2.05 0.28 4.11 0.44 6.17 0.06 0.91 0.12 1.82 0.18 2.77 0.32 2.98 0.32 2.98 1.38 6.21 1.09 3.98 1.45 7.78 1.62 11.9 0.03 0.78 0.07 1.56 0.11 2.36 0.36 8.13 0.42 16.3 0.4 24.4 0 2.45 0 4.91 0.01 7.37 0 8.32-0.16 16.6-0.59 24.9-0.03 0.77-0.07 1.54-0.11 2.33-0.72 12.7-0.72 12.7-2.44 14.4-0.04 1.43-0.02 2.86 0.02 4.29 0.06 6.12-0.59 12.1-1.33 18.2-0.12 1.05-0.24 2.11-0.36 3.19-0.74 6.19-1.92 12-3.65 18-0.77 2.69-1.3 5.36-1.74 8.12-0.56 3.47-1.35 6.77-2.34 10.1-0.73 2.56-1.38 5.14-2.04 7.72-0.25 1-0.51 2-0.77 3.03-0.53 2.09-1.06 4.18-1.58 6.26-0.25 1-0.51 2-0.77 3.02-0.34 1.36-0.34 1.36-0.69 2.74-0.75 2.34-0.75 2.34-2.75 5.34-0.49 1.59-0.92 3.2-1.31 4.81-2.08 7.94-4.55 16-8.25 23.3-1.32 2.67-2.18 5.1-2.94 7.96-1.07 3.73-2.36 6.68-4.5 9.94-0.7 1.65-1.37 3.32-2 5h-2c-0.12 0.91-0.25 1.82-0.38 2.75-0.54 2.84-1.19 4.78-2.62 7.25h-2c-0.09 0.68-0.19 1.35-0.29 2.05-0.88 3.67-2.44 6.86-4.15 10.2-0.31 0.64-0.62 1.27-0.94 1.93-2.37 4.69-2.37 4.69-4.62 5.82-0.99 1.64-0.99 1.64-1.88 3.62-1.87 3.91-3.94 7.64-6.12 11.4h-2c-0.15 0.83-0.15 0.83-0.31 1.68-0.83 2.8-2.14 4.92-3.69 7.38-1.69 2.7-2.99 4.91-4 7.94-2-1-2-1-3-2-0.08 1.05-0.16 2.1-0.25 3.19-0.84 4.25-2 5.57-4.75 8.81-1.32 1.77-2.63 3.54-3.94 5.31-7.5 10-15.4 19.8-23.7 29.2-1.17 1.34-2.26 2.74-3.34 4.15-2.24 2.66-4.69 4.71-7.41 6.85-1.69 1.45-1.69 1.45-2.56 3.49-1.26 2.49-2.77 3.77-4.91 5.54-2.28 1.92-4.41 3.8-6.5 5.94-1.62 1.56-1.62 1.56-3.62 1.56l-1 3c-3.6 3.8-7.17 6.07-12 8-1.13 2.02-1.13 2.02-2 4-0.99 0.33-1.98 0.66-3 1-1.69 1.64-3.36 3.31-5 5-1.83 1.61-3.69 3.19-5.56 4.75-0.93 0.78-1.86 1.56-2.82 2.36-2.44 1.76-3.81 2.2-6.62 2.89l-1 3c-2.33 1.68-2.33 1.68-5.25 3.44-3.82 2.31-7.28 4.76-10.8 7.56-1.17 0.72-2.35 1.41-3.56 2.06-3.33 1.77-3.33 1.77-5.69 3.69-1.75 1.25-1.75 1.25-4.75 1.25v2c-2.24 1.52-2.24 1.52-5.31 3.25-1.1 0.62-2.19 1.24-3.31 1.88-3.96 2.19-7.93 4.37-11.9 6.52-2.14 1.17-4.24 2.37-6.35 3.6-3.12 1.75-3.12 1.75-5.34 2.62-3.56 1.45-6.93 3.2-10.3 4.94-12.1 6.08-24.5 10.8-37.2 15.4-4.35 1.59-8.68 3.22-13 4.88-5.61 2.12-11.2 3.76-17 5.15-4.73 1.17-9.4 2.55-14.1 3.92-2.71 0.75-5.37 1.33-8.13 1.87-0.8 0.16-1.59 0.32-2.42 0.48-2.69 0.53-5.38 1.06-8.08 1.58-1.41 0.28-1.41 0.28-2.84 0.57-0.91 0.17-1.82 0.35-2.75 0.53-0.83 0.16-1.65 0.32-2.49 0.49-2.42 0.35-2.42 0.35-5.07 0.35-2.43-0.13-2.43-0.13-4.9 0.9-5.1 1.63-10.3 2.11-15.6 2.72-1.07 0.14-2.13 0.27-3.23 0.41-6.47 0.77-12.8 1.08-19.3 0.92-2.39-0.12-2.39-0.12-4.37 1.05-9.29 1.15-18.6 1.15-28 1.12-1.26 0.01-2.53 0.01-3.83 0.02-23.1-0.03-23.1-0.03-25.2-2.14-1.36-0.02-2.72 0.01-4.07 0.06-6.63 0.06-13.1-0.83-19.6-1.71-2.11-0.29-4.21-0.57-6.31-0.84-10.7-1.42-10.7-1.42-16-2.51-1.9-0.29-3.79-0.59-5.69-0.88-4.67-0.76-9.02-1.88-13.5-3.33-4.75-1.35-9.62-2.16-14.5-3.04-2.86-0.65-4.77-1.42-7.32-2.75-1.93-0.52-3.87-1-5.81-1.44-4.66-1.12-8.8-2.61-13.2-4.56-4.38-1.43-8.82-2.66-13.2-3.94-5.6-1.66-10.8-3.37-16-6.13-3.49-1.86-7.16-3.33-10.8-4.72-8.25-3.16-16.1-7.16-23.9-11.2-0.65-0.34-1.3-0.67-1.97-1.02-1.83-0.94-3.65-1.9-5.47-2.86-1.57-0.83-1.57-0.83-3.18-1.67-2.38-1.45-2.38-1.45-3.38-3.45-0.8-0.25-1.61-0.49-2.44-0.75-4.96-1.74-9.12-4.46-13.6-7.25-1.3-0.81-1.3-0.81-2.63-1.63-12.6-7.92-24.6-16.6-36.3-25.8-1.87-1.44-3.76-2.87-5.65-4.29-9.77-7.42-18.6-15.7-27.4-24.3-0.86-0.84-1.72-1.68-2.61-2.54-2.66-2.6-5.31-5.22-7.95-7.84-0.84-0.82-1.68-1.65-2.55-2.5l-2.33-2.33c-0.69-0.68-1.38-1.37-2.09-2.07-1.47-1.72-1.47-1.72-1.47-3.72-0.56-0.23-1.13-0.46-1.71-0.7-2.9-1.65-4.75-3.69-6.98-6.18-1.18-1.29-1.18-1.29-2.38-2.61-1.93-2.51-1.93-2.51-2.45-4.71-0.16-0.59-0.32-1.19-0.48-1.8-1.32-0.69-2.66-1.35-4-2-2-2.21-2-2.21-4-4.81-0.99-1.28-0.99-1.28-2-2.58-0.66-0.86-1.32-1.72-2-2.61-0.74-0.87-1.49-1.74-2.25-2.64-1.75-2.36-1.75-2.36-1.75-5.36-0.99-0.33-1.98-0.66-3-1-1.4-1.95-2.73-3.96-4-6-1.06-1.55-1.06-1.55-2.14-3.14-0.7-1.03-1.39-2.05-2.11-3.11-1.06-1.55-1.06-1.55-2.14-3.14-1.61-2.61-1.61-2.61-1.61-4.61h-2c-0.57-1.02-1.14-2.03-1.72-3.08l-2.34-4.17c-0.41-0.73-0.82-1.46-1.24-2.21-2.39-4.26-4.83-8.47-7.32-12.7-3.22-5.46-6.03-11.1-8.8-16.8-1.51-3.08-1.51-3.08-3.13-5.71-1.5-2.5-2.7-5.01-3.89-7.67-0.43-0.97-0.87-1.94-1.31-2.95-0.62-1.38-0.62-1.38-1.25-2.8-0.32-0.7-0.64-1.4-0.96-2.12-1.04-2.28-2.04-4.58-3.04-6.88-0.47-1.04-0.94-2.08-1.42-3.14-6.52-14.9-11.1-30.5-16-45.9-0.58-1.84-1.17-3.68-1.75-5.52-2.06-6.51-3.76-13-5.05-19.7-0.6-5.3-0.6-5.3-2.81-9.75-0.37-2.14-0.68-4.29-0.97-6.44-0.27-1.96-0.27-1.96-0.54-3.96-0.18-1.39-0.37-2.77-0.55-4.16-0.19-1.4-0.38-2.79-0.57-4.18-0.46-3.42-0.92-6.84-1.37-10.3h-1c-2.79-34-3.5-67.5-1-102 0.08-1.13 0.17-2.27 0.25-3.43 0.08-1.04 0.17-2.07 0.25-3.14 0.07-0.92 0.14-1.84 0.22-2.78 0.28-2.09 0.28-2.09 1.28-3.09 0.35-2.3 0.64-4.61 0.9-6.92 0.17-1.43 0.34-2.87 0.51-4.3 0.27-2.26 0.53-4.52 0.79-6.79 0.25-2.18 0.5-4.36 0.76-6.54 0.16-1.3 0.31-2.61 0.46-3.96 0.52-3.14 1.3-5.6 2.58-8.49 0.5-1.91 0.95-3.83 1.38-5.75 0.25-1.13 0.51-2.27 0.77-3.43 0.28-1.26 0.56-2.52 0.85-3.82 0.66-2.94 1.33-5.88 2-8.81 0.15-0.7 0.31-1.39 0.47-2.1 0.97-4.24 2.26-8.21 3.84-12.3 0.9-2.38 1.52-4.8 2.13-7.27 1.15-4.39 2.65-8.39 4.6-12.5 0.69-1.48 1.33-2.99 1.93-4.5 1.06-2.63 2.21-5.19 3.41-7.76 1.66-3.63 3.23-7.27 4.68-11 1.46-3.69 3.06-7.24 4.89-10.8 0.99-1.93 1.96-3.86 2.93-5.8 0.35-0.69 0.7-1.39 1.05-2.11 1.02-2.03 2.03-4.07 3.03-6.1 3.17-6.39 6.35-12.7 9.88-18.9 2.19-3.97 4.17-8.04 6.16-12.1h2c0.26-0.71 0.52-1.41 0.78-2.14 1.32-3.1 2.92-5.82 4.72-8.67 0.61-0.98 1.22-1.95 1.84-2.96 0.55-0.74 1.1-1.47 1.66-2.23h2c0.26-0.72 0.52-1.45 0.79-2.19 1.25-2.9 2.73-5.19 4.59-7.75 1.99-2.78 3.96-5.55 5.81-8.44 1.74-2.52 3.65-4.46 5.81-6.62l1-2c1.5-3 3.45-6 7-6zm-93 189 1 3zm-6 46 1 2zm0 82 1 2zm6 45 1 2zm6 25 1 2z" fill="#727FFB"/>
<path transform="translate(444 564)" d="m0 0c3.49 0.01 6.99 0 10.5-0.01 36.6-0.1 36.6-0.1 53.4 2.27l1 1c1.99 0.35 4 0.64 6.01 0.9 1.23 0.17 2.46 0.34 3.73 0.51 2.61 0.35 5.22 0.7 7.82 1.04 1.24 0.17 2.48 0.34 3.76 0.52 1.14 0.15 2.27 0.3 3.44 0.45 3.23 0.58 6.15 1.49 9.24 2.58 1.93 0.46 3.87 0.9 5.81 1.31 8.18 1.85 16.2 4.26 24.2 6.69 1.81 0.54 3.62 1.08 5.43 1.63 0.76 0.23 1.51 0.45 2.29 0.69 1.64 0.49 3.28 0.96 4.92 1.42 0.88 0.25 1.76 0.5 2.67 0.76 1.17 0.33 1.17 0.33 2.36 0.66 2.33 0.84 2.33 0.84 4.62 2.24 3.43 2.03 6.97 3.32 10.7 4.66 1.39 0.51 2.79 1.03 4.18 1.54 0.99 0.36 0.99 0.36 2 0.73 3.94 1.46 7.7 3.06 11.4 4.98 3.4 1.73 6.82 3.35 10.3 4.88 10.9 4.91 21.5 10.8 32 16.6 1.92 1.07 3.85 2.12 5.78 3.17 6.12 3.39 11.6 6.79 16.7 11.6 2.03 1.76 4.09 2.51 6.61 3.39 1.69 1.3 3.35 2.65 5 4 2.65 1.82 5.31 3.63 7.98 5.41 0.67 0.53 1.33 1.05 2.02 1.59v2c0.7 0.23 1.4 0.45 2.12 0.69 3.6 1.64 6.07 3.51 8.88 6.31 0.67 3.17 0.67 3.17 1 6-0.73 0.46-1.45 0.92-2.2 1.39-0.97 0.61-1.93 1.23-2.93 1.86-1 0.64-2.01 1.27-3.04 1.93-2.14 1.37-4.21 2.78-6.27 4.26-2.56 1.56-2.56 1.56-6.56 1.56-0.21 0.6-0.42 1.2-0.63 1.81-1.89 3.02-4.18 3.72-7.37 5.19-0.73 0.56-1.45 1.11-2.19 1.69-1.81 1.31-1.81 1.31-4.81 1.31l-1 3c-1.75 1.04-3.5 2.07-5.29 3.02-1.84 0.95-1.84 0.95-3.46 2.73l-1.25 1.25h-3l-1 3c-1.89 1.5-1.89 1.5-4.25 3-1.22 0.78-1.22 0.78-2.46 1.58-1.73 1.07-3.47 2.1-5.23 3.11-2.34 1.29-2.34 1.29-4.06 4.31-0.99 0.33-1.98 0.66-3 1-0.62 0.64-1.24 1.28-1.88 1.94-2.12 2.06-2.12 2.06-4.75 3.06-2.97 1.25-3 2.17-4.37 5-5.03 5-5.03 5-8 5-0.35 0.85-0.35 0.85-0.7 1.72-1.64 2.86-3.63 4.57-6.12 6.72-4.15 3.62-4.15 3.62-8.06 7.5-2 1.94-3.67 2.83-6.12 4.06l-1 3c-1.34 0.33-2.67 0.67-4 1l-1 3c-1.57 1.51-1.57 1.51-3.57 3.13-4.96 4.21-10.6 9.03-13.4 15-1.14 2.21-2.36 3.3-4.3 4.85-4.77 3.95-8.55 7.68-11.7 13.1l-2 1c-0.5 0.85-0.99 1.69-1.5 2.56-0.75 1.21-0.75 1.21-1.5 2.44h-2c-0.25 0.72-0.5 1.44-0.75 2.19-1.76 3.95-4.23 6.81-7.32 9.81-2.07 1.98-2.07 1.98-3.56 4.75-0.68 1.11-0.68 1.11-1.37 2.25h-2c-0.29 0.74-0.58 1.49-0.88 2.25-0.95 2.32-1.97 4.53-3.12 6.75h-2c-0.23 0.66-0.46 1.32-0.69 2-1.13 2.57-2.33 4.9-3.75 7.31-0.41 0.7-0.82 1.4-1.25 2.12-0.43 0.52-0.87 1.04-1.31 1.57h-3c-0.11 0.93-0.21 1.86-0.32 2.81-0.75 3.49-1.2 3.89-3.68 6.19-1.39 2.32-2.71 4.64-4 7-0.75 1.31-1.5 2.63-2.25 3.94-0.58 1.01-1.16 2.02-1.75 3.06h-2c-0.11 0.55-0.22 1.11-0.33 1.68-0.8 2.76-2.02 5-3.42 7.51-0.54 0.97-1.08 1.94-1.64 2.94-0.98 1.75-1.96 3.49-2.95 5.24-3.06 5.46-5.89 11-8.66 16.6-0.88 1.76-1.76 3.53-2.65 5.29-0.9 1.81-1.81 3.63-2.72 5.44-0.95 1.9-1.9 3.8-2.86 5.7-5.25 10.4-9.3 21.3-13.4 32.1-0.74 1.92-1.49 3.83-2.27 5.73-2.45 6.03-4.61 12.1-6.64 18.3-0.29 0.88-0.58 1.77-0.88 2.67-0.57 1.75-1.15 3.49-1.72 5.24-2.03 6.17-4.1 12.3-6.19 18.5-0.63 2-1.16 3.99-1.64 6.04-0.28 1.15-0.55 2.3-0.84 3.48-0.32 1.38-0.65 2.76-0.98 4.15-0.26 1.1-0.26 1.1-0.53 2.23-0.94 4.02-1.86 8.05-2.74 12.1-0.17 0.8-0.35 1.6-0.53 2.43-0.33 1.55-0.66 3.09-0.99 4.64-0.63 2.93-1.28 5.71-2.45 8.47-1.34 3.57-1.59 7.11-1.94 10.9-0.4 4.16-0.84 8.05-2 12.1-1.2 4.22-1.65 8.3-2.07 12.7-0.46 4.68-0.95 9.26-1.93 13.9-0.96 7.06-1.28 14.2-1.61 21.3-0.29 5.49-0.29 5.49-1.39 7.71-0.11 2.2-0.14 4.41-0.15 6.62 0 0.68-0.01 1.36-0.01 2.06-0.01 2.25-0.01 4.51-0.01 6.77-0.01 1.57-0.01 3.14-0.01 4.71-0.01 3.29-0.01 6.59-0.01 9.89 0 4.21-0.01 8.42-0.03 12.6-0.01 3.24-0.01 6.49-0.01 9.73 0 1.56-0.01 3.11-0.02 4.66-0.03 7.58 0.01 14.6 2.25 21.9 0.21 2.42 0.21 2.42 0.16 4.4-0.01 0.72-0.03 1.45-0.04 2.2-0.02 0.73-0.04 1.46-0.06 2.21-0.21 5.67-0.21 5.67 0.94 11.2 0.16 1.18 0.33 2.35 0.5 3.56 0.29 3.29 0.29 3.29 1.5 5.44 0.2 1.39 0.36 2.78 0.5 4.18 0.08 0.82 0.16 1.65 0.25 2.51 0.08 0.86 0.16 1.73 0.25 2.62 0.59 6.2 1.29 12.1 2.93 18.1 1.32 5.09 1.87 10.3 2.5 15.5 0.39 3.23 0.39 3.23 2.57 6.07 0.45 2.07 0.83 4.16 1.18 6.25 1.82 9.96 4.97 19.5 8.01 29.2 1.01 3.22 2 6.46 2.99 9.7 0.31 0.97 0.61 1.95 0.92 2.96 0.64 2.07 1.27 4.15 1.88 6.23 1.72 5.71 3.58 11.2 5.88 16.7 1.88 4.89 3.45 9.9 5.03 14.9 0.24 0.76 0.49 1.51 0.74 2.29 0.21 0.68 0.43 1.36 0.65 2.06 0.68 1.94 0.68 1.94 2.72 3.72 0.78 1.85 1.5 3.74 2.18 5.63 2.01 5.32 4.12 10.6 6.38 15.8 0.28 0.66 0.56 1.32 0.85 2 1.82 4.18 4.02 7.78 6.59 11.6 1.05 2 2.07 4.03 3.06 6.06 1.83 3.77 3.78 7.36 5.94 10.9 1.08 2.05 2.14 4.12 3.18 6.19 0.53 1.04 1.06 2.09 1.61 3.17 1.21 2.64 1.21 2.64 1.21 4.64-14.4 2.68-28.5 4.34-43.2 3.94-1.89-0.06-1.89-0.06-3.78 1.06-1.77 0.1-3.55 0.13-5.32 0.13-1.11 0-2.22 0.01-3.37 0.01-1.21 0-2.42 0-3.67-0.01-1.87 0-1.87 0-3.78 0.01-2.66 0-5.32 0-7.97-0.01h-8.09c-36.9 0.06-36.9 0.06-47.5-2.63-6.05-1.33-12.3-1.71-18.5-2.35-1.07-0.12-2.14-0.24-3.25-0.37-0.97-0.1-1.94-0.2-2.94-0.31-2.57-0.46-4.32-1.24-6.6-2.47-1.95-0.39-3.91-0.72-5.88-1-4.25-0.66-8.07-1.53-12.1-3-1.81-0.51-3.63-1.01-5.44-1.5-10.9-2.95-10.9-2.95-15.3-4.44-3.37-1.1-6.75-2.06-10.2-3-7.49-2.11-7.49-2.11-10.8-3.62-3.58-1.58-7.16-2.64-10.9-3.69-2.27-0.73-4.23-1.65-6.33-2.75-1.35-0.61-2.71-1.22-4.07-1.81-4.44-1.96-8.86-3.97-13.3-5.99-1.58-0.71-3.17-1.41-4.77-2.09-7.46-3.17-14.5-7.1-21.7-10.9-2.15-1.15-4.31-2.28-6.47-3.4-0.67-0.35-1.35-0.71-2.04-1.07-1.26-0.66-2.53-1.32-3.79-1.97-3.65-1.92-6.73-4.14-9.91-6.74-1.82-1.03-1.82-1.03-3.63-1.81-8.9-4.32-16.4-9.97-23.9-16.4-4.03-3.36-8.3-6.39-12.6-9.43-15.9-11.3-15.9-11.3-22.3-17.8-1.84-1.85-3.69-3.68-5.55-5.5-4.16-4.11-8.31-8.23-12.5-12.4-1.78-1.76-3.56-3.53-5.35-5.29-10.1-9.99-19.8-19.9-28.2-31.4-0.98-1.26-0.98-1.26-1.98-2.55-4.02-5.18-4.02-5.18-4.02-7.45h-2c-1.23-1.55-1.23-1.55-2.63-3.75-0.53-0.82-1.06-1.64-1.6-2.49-0.59-0.91-1.17-1.82-1.77-2.76-1.31-1.96-2.63-3.92-3.94-5.87-3.24-4.85-6.37-9.75-9.48-14.7-1.31-2.03-2.69-3.96-4.15-5.89-2.89-3.93-4.89-8.3-7-12.7-1.36-2.72-2.86-5.27-4.43-7.87-6.34-11.5-11.9-23.1-16.9-35.3-0.91-2.19-1.86-4.36-2.82-6.53-1.31-3.19-1.31-3.19-2.38-6.94-0.79-3.36-0.79-3.36-2.93-6.25-0.53-1.53-1-3.07-1.44-4.62-0.98-3.37-1.97-6.73-3.06-10.1-0.22-0.66-0.44-1.32-0.66-2.01-0.69-1.88-1.48-3.72-2.31-5.54-1.73-3.98-2.68-8.03-3.6-12.3-0.9-4.05-1.81-8.05-2.96-12-1.24-4.42-2.08-8.87-2.92-13.4-0.41-3.32-0.41-3.32-2.05-6.08-0.36-2.13-0.66-4.27-0.94-6.41-0.26-1.95-0.26-1.95-0.52-3.94-0.28-2.08-0.54-4.16-0.81-6.24-0.26-2-0.53-4-0.8-6-0.15-1.21-0.31-2.41-0.47-3.65-0.17-2.66-0.17-2.66-1.46-3.76-1.24-10.9-1.15-22-1.14-32.9v-5.06c0-3.51 0-7.02 0.01-10.5 0-4.45 0-8.9-0.01-13.4v-10.4-4.92c-0.01-8.35 0.1-16.7 0.52-25 0.03-0.69 0.06-1.38 0.09-2.09 0.25-4.19 1.08-7.72 2.53-11.6 0.31-1.79 0.57-3.6 0.78-5.41 0.12-0.99 0.24-1.98 0.36-3s0.24-2.04 0.36-3.09c0.7-6.1 1.41-11.7 3.5-17.5 0.51-2.6 0.99-5.2 1.43-7.81 0.93-5.22 2.05-10.2 3.88-15.2 0.96-2.81 1.52-5.66 2.06-8.58 0.73-2.83 1.76-5.52 2.81-8.25 1.37-3.65 2.55-7.35 3.75-11 2.14-6.48 4.44-12.8 7.07-19.1 1.07-2.62 2.13-5.25 3.18-7.87 0.27-0.65 0.53-1.29 0.8-1.95 1.22-3.03 2.35-5.98 3.02-9.18h2c0.16-0.55 0.32-1.09 0.49-1.66 1.81-5.77 4.19-10.9 7.13-16.2 0.81-1.46 1.61-2.93 2.42-4.4 0.35-0.63 0.7-1.26 1.06-1.92 0.97-1.87 0.97-1.87 1.43-4.02 0.6-2.37 1.75-3.13 3.47-4.85 0.43-0.87 0.86-1.73 1.31-2.62 1.41-2.84 2.91-5.27 4.69-7.88 1.67-2.46 3.12-4.76 4.43-7.44 1.95-3.82 4.41-7.14 6.95-10.6 1.59-2.43 2.56-4.77 3.62-7.47 1.29-1.37 2.62-2.71 4-4 2.15-2.6 4.12-5.18 6-8h2c0.37-1.33 0.37-1.33 0.75-2.69 1.29-3.43 2.91-5.52 5.25-8.31l1-3c1.77-1.72 1.77-1.72 3.93-3.5 2.58-2.13 4.19-3.68 6.07-6.5h2c0.14-0.61 0.29-1.23 0.44-1.86 1.87-6.75 1.87-6.75 5.31-8.7 1.07-0.48 2.14-0.95 3.25-1.44 1.91-1.91 3.62-3.94 5.35-6.03 2.07-2.47 4.36-4.69 6.65-6.97 1.99-2.33 3.97-4.66 5.93-7.01 2.27-2.19 4.17-2.85 7.07-3.99 1.85-1.74 1.85-1.74 3.43-3.81 2.93-3.51 5.97-6.35 9.57-9.19 1.23-1.04 2.46-2.08 3.68-3.12 0.56-0.48 1.13-0.96 1.7-1.45 1.11-0.98 2.17-2 3.2-3.05 1.42-1.38 1.42-1.38 3.35-2.32 2.18-0.98 2.18-0.98 3.88-2.89 5.27-5.23 19.6-18.2 27.2-18.2v-2c1.65-1.02 3.32-2.02 5-3l1-2c1.47-0.64 2.98-1.22 4.5-1.75 4.52-1.73 8.19-3.9 12.1-6.67 6.11-4.09 12.8-7.31 19.4-10.6 1.19-0.61 2.39-1.22 3.59-1.83 8.67-4.41 17.4-8.47 26.4-12.2 0.83-0.34 1.67-0.69 2.53-1.05 7.14-2.9 14.4-5.57 21.6-8.25 1.62-0.61 3.23-1.22 4.85-1.83 14.3-5.36 29.1-8.64 43.9-12.1 3.12-0.75 6.23-1.55 9.34-2.36 4.66-1.17 9.15-1.94 13.9-2.44 4.04-0.43 7.94-0.94 11.9-1.9 5.3-1.19 10.6-1.73 16-2.15 1.61-0.12 1.61-0.12 3.25-0.25 13-0.92 25.9-0.94 38.9-0.9zm-324 145 1 2zm-98 186 1 3zm-5 22 1 3zm-5 30v5h1v-5h-1zm0 105 1 4zm5 31 1 3zm5 22 1 3z" fill="#727FFB"/>
<path transform="translate(1186 157)" d="m0 0c0.75 0.03 1.51 0.06 2.28 0.09 3.17 0.18 5.99 0.58 9.05 1.48 5.48 1.52 11 2.01 16.7 2.62 2.27 0.24 4.54 0.5 6.8 0.75 1 0.11 2 0.22 3.03 0.33 2.29 0.35 2.29 0.35 3.29 1.35 2.17 0.3 4.33 0.59 6.49 0.85 10.6 1.3 20.6 3.62 30.8 6.75 3.9 1.2 7.8 2.13 11.8 2.97 2.25 0.5 4.41 1.13 6.58 1.87 0.67 0.23 1.35 0.45 2.04 0.69 2.52 0.95 4.99 2.02 7.47 3.09 3.08 1.3 6.22 2.44 9.36 3.6 5.59 2.08 11.2 4.19 16.7 6.37 1.19 0.47 2.38 0.94 3.61 1.42 2.92 1.27 5.48 2.76 8.2 4.39 1.55 0.57 3.11 1.1 4.69 1.57 2.92 0.87 4.12 1.24 6.31 3.43 1.32 0.45 2.66 0.83 4 1.19 4.9 1.54 8.51 4.11 12.6 7.13 2.59 1.83 5.2 3.18 8.06 4.53 8.56 4.24 18 9.05 25.3 15.2v2c0.55 0.09 1.09 0.18 1.64 0.27 5.31 1.65 9.83 5.6 14.4 8.73 0.78 0.52 1.55 1.04 2.34 1.58 1.6 1.08 3.14 2.25 4.66 3.42v2c0.53 0.23 1.05 0.45 1.58 0.68 3.33 1.82 6.22 4.15 9.18 6.51 0.61 0.49 1.23 0.98 1.87 1.49 10.9 8.7 10.9 8.7 13.4 11.3v2c0.84 0.1 0.84 0.1 1.69 0.19 3.26 1.15 4.96 3.34 7.31 5.81 0.66 0.33 1.33 0.66 2 1v2c1 0.33 1.99 0.66 3 1 1.7 1.98 3.36 3.98 5 6 0.66 0.34 1.33 0.66 2 1v2c1 0.34 1.99 0.66 3 1 1.65 1.9 1.65 1.9 3.38 4.26 2.06 2.74 4.07 5.32 6.56 7.68l2.06 2.06v2c0.57 0.21 1.13 0.41 1.7 0.62 3.16 1.9 4.99 4.58 7.12 7.51 2.73 3.67 5.44 7.27 8.56 10.6 5.34 5.95 9.71 12.7 14.3 19.3 1.71 2.46 3.44 4.9 5.18 7.34 17.2 24.6 17.2 24.6 17.2 29.6 0.66 0.34 1.33 0.66 2 1 7.07 11.2 12.8 23.8 18 36 0.64 1.46 0.64 1.46 1.29 2.95 12.6 29.1 12.6 29.1 15 39.6 0.77 2.89 1.83 5.61 2.89 8.4 6.37 17.2 10.8 35.8 12.1 54 0.24 3 0.46 5.65 1.62 8.44 1.14 2.96 1.42 5.45 1.65 8.6 0.08 1.13 0.17 2.26 0.25 3.42 0.08 1.17 0.16 2.35 0.24 3.55 0.09 1.17 0.17 2.34 0.26 3.54 0.63 8.68 0.63 8.68 0.58 12.8-0.16 2.71-0.16 2.71 1.03 4.74 0.08 1.87 0.09 3.73 0.07 5.6-0.01 1.11-0.02 2.22-0.03 3.37-0.02 2.36-0.05 4.71-0.07 7.07-0.01 1.11-0.02 2.23-0.03 3.37-0.01 1.54-0.01 1.54-0.03 3.1-0.08 2.5-0.08 2.5 1.09 4.49-0.32 0.67-0.65 1.32-1 2-0.04 1.47-0.03 2.94 0.01 4.4 0.27 13.4-0.28 26.6-1.38 40-0.06 0.8-0.13 1.61-0.19 2.44-0.19 2.3-0.38 4.6-0.58 6.9-0.06 0.69-0.11 1.38-0.17 2.1-0.33 3.49-0.69 5.2-2.69 8.18-0.35 2.43-0.35 2.43-0.43 5.19-0.35 5.2-1.08 10.2-2.07 15.3-0.13 0.69-0.26 1.37-0.39 2.07-0.49 2.47-0.98 4.94-1.59 7.38-0.53 2.12-0.98 4.25-1.42 6.39-0.25 1.23-0.25 1.23-0.51 2.48-0.35 1.7-0.69 3.4-1.04 5.1-0.92 4.48-2.01 8.76-3.55 13.1-0.48 1.61-0.96 3.21-1.43 4.82-1.42 4.76-2.97 9.48-4.57 14.2-0.32 1.02-0.65 2.03-1 3.07-4.61 13.6-10.3 26.8-16 39.9h-2c-0.18 1.09-0.18 1.09-0.37 2.19-0.62 2.77-1.51 5.21-2.63 7.81h-2c-0.18 1.09-0.18 1.09-0.37 2.19-0.92 4.13-2.28 7.29-4.63 10.8-1.32 2.46-2.63 4.91-3.93 7.38-5.84 11.1-5.84 11.1-9.44 15.9-1.95 2.67-3.57 5.39-5.13 8.31-1.52 2.83-3.08 5.31-5.18 7.75-1.92 2.22-3.18 4.01-4.32 6.68h-2c-0.26 0.97-0.53 1.94-0.81 2.94-0.59 1.52-0.59 1.52-1.19 3.06-0.99 0.34-1.98 0.66-3 1-0.69 1.66-1.35 3.33-2 5-1.25 1.7-2.57 3.34-3.93 4.94-4.18 4.98-8.21 10-12.2 15.2-2.75 3.54-5.68 6.71-8.9 9.85-0.61 0.81-1.23 1.61-1.87 2.44-2.26 2.72-4.69 4.84-7.39 7.09-2.39 2.03-4.55 4.24-6.74 6.47-2.54 2.61-5.03 5.03-7.87 7.32-2.45 1.99-4.46 4.15-6.5 6.56-3.55 4.15-7.42 7.66-11.6 11.1-0.78 0.65-1.57 1.3-2.37 1.97-4.96 4.03-10 7.81-15.3 11.4-2.14 1.47-4.24 3-6.34 4.54-3 2.06-3 2.06-5 2.06-0.34 0.9-0.34 0.9-0.69 1.82-1.65 2.76-3.32 3.64-6.12 5.18-2.91 1.66-5.4 3.18-8 5.32-2.43 1.87-4.17 2.34-7.19 2.68-0.32 1-0.66 1.99-1 3-2.33 1.4-2.33 1.4-5.37 2.82-6.81 3.26-13.5 6.69-20 10.6-9.65 5.7-19.9 10.2-30.3 14.3-2.71 1.06-5.36 2.17-8.01 3.37-8.26 3.71-16.3 7.17-25.1 9.26-2.36 0.55-2.36 0.55-4.18 2.67-2.03 0.72-2.03 0.72-4.62 1.38-0.97 0.25-1.95 0.51-2.95 0.77-2.52 0.63-5.04 1.25-7.57 1.87-0.71 0.17-1.42 0.35-2.15 0.52-1.41 0.35-2.81 0.69-4.22 1.02-2.65 0.64-5.12 1.26-7.56 2.5-2.7 1.33-5.33 1.56-8.3 1.94-3.24 0.43-6.2 0.86-9.3 1.93-29.6 9.52-62.8 8.74-93.4 8.64-1.29-0.01-1.29-0.01-2.61-0.01-5.82-0.01-11.6-0.05-17.5-0.11-0.75-0.01-1.5-0.01-2.27-0.02-11.2-0.1-22.6-0.54-33.5-3.43-1.45-0.19-2.91-0.35-4.37-0.5-3.57-0.35-7.08-0.9-10.6-1.5-1.07-0.15-2.14-0.3-3.25-0.46-1.09-0.16-2.18-0.31-3.31-0.47-1.09-0.16-2.19-0.31-3.31-0.47-3.13-0.6-3.13-0.6-5.63-1.6-2.95-1.17-5.67-1.54-8.81-1.93-4.44-0.64-8.26-1.47-12.4-3.21-4.49-1.67-9.19-2.71-13.8-3.89-2.95-0.82-5.65-1.81-8.49-2.97-2.78-0.78-5.57-1.5-8.37-2.21-2.41-0.72-4.4-1.64-6.63-2.79-1.32-0.46-2.65-0.89-4-1.31-11-3.58-21.6-8.51-32-13.7-1.36-0.59-2.72-1.19-4.09-1.78-4.92-2.18-9.66-4.63-14.4-7.15-1.18-0.63-1.18-0.63-2.39-1.27-8.14-4.3-16.2-8.72-24-13.6-1.04-0.65-1.04-0.65-2.1-1.31-4.91-3.1-9.61-6.41-14.3-9.89-2.54-1.83-5.14-3.49-7.8-5.14-5.96-3.68-11.4-7.67-16.8-12.2-0.6-0.51-1.21-1.02-1.83-1.55-2.64-2.31-4.23-3.69-5.36-7.08 1.15-0.54 1.15-0.54 2.31-1.1 7.68-3.74 14.8-7.73 21.4-13.1 2.34-1.83 4.5-2.67 7.24-3.76 0.43-0.44 0.85-0.88 1.28-1.33 3.14-3.02 7.13-4.83 10.9-6.95 2.4-1.46 3.91-2.72 5.81-4.72 1.61-1.21 3.24-2.39 4.88-3.56 8.98-6.46 17.8-13.1 26.1-20.4 1.04-0.89 1.04-0.89 2.09-1.81 3.06-2.65 6.05-5.32 8.91-8.19 3.7-3.38 7.39-6.65 11.6-9.43 3.51-2.43 6.08-5.39 8.81-8.65 2.08-2.45 4.33-4.68 6.62-6.92 0.85-0.86 1.7-1.73 2.57-2.62 2.44-2.38 2.44-2.38 4.69-4 2.04-1.35 2.04-1.35 2.74-4.38 1-0.33 1.99-0.65 3-1 0.69-1.32 1.35-2.66 2-4 1.77-1.71 1.77-1.71 3.82-3.37 3.53-2.99 6.33-5.99 9.18-9.63 0.75-0.88 1.49-1.77 2.26-2.68 3.2-3.85 6.36-7.74 9.52-11.6 1.87-2.27 3.78-4.49 5.72-6.7 2.64-2.78 2.64-2.78 3.5-6 0.72-0.68 0.72-0.68 1.44-1.37 1.73-1.58 1.73-1.58 2.44-4 1.43-3.34 3.51-5.13 6.12-7.63 5.9-7.03 10.6-15 15-23h2c0.41-1.07 0.41-1.07 0.82-2.16 1.2-2.88 2.6-5.47 4.18-8.15 0.52-0.88 1.04-1.76 1.57-2.67 0.47-0.67 0.95-1.33 1.43-2.02h2c0.22-0.77 0.44-1.54 0.67-2.33 1.82-4.99 4.28-9.55 6.77-14.2 0.74-1.4 0.74-1.4 1.49-2.82 2.81-5.32 5.63-10.5 9.07-15.5 2.09-3.26 3.57-6.55 5-10.1 0.79-1.89 1.59-3.79 2.38-5.68 1.31-3.15 2.62-6.29 3.92-9.44 1.82-4.39 3.64-8.76 5.64-13.1 4.47-9.96 7.68-20.6 11.1-30.9 1.04-3.06 2.17-6.07 3.3-9.09 5.16-14.4 9.3-29.3 12.1-44.3 0.6-2.48 0.6-2.48 2.6-5.48 0.39-2.23 0.39-2.23 0.5-4.68 0.31-3.78 0.96-7.19 1.97-10.8 0.9-4.17 1.31-8.42 1.75-12.6 0.34-3.05 0.78-5.8 1.78-8.69 1.37-4.27 1.68-8.49 2.07-12.9 0.15-1.71 0.31-3.43 0.47-5.14 0.07-0.75 0.13-1.51 0.2-2.28 0.26-1.77 0.26-1.77 1.26-2.77 2.82-18.7 2.31-37.8 2.27-56.6-0.02-4.47-0.01-8.94 0-13.4 2-28.7 2-28.7-3.27-56-0.26-1.99-0.48-3.99-0.68-6-0.12-1.22-0.24-2.43-0.37-3.68-0.25-2.56-0.5-5.11-0.75-7.67-0.6-5.92-1.27-11.7-2.68-17.5-1.01-4.29-1.69-8.65-2.45-13-1.4-7.82-2.97-15.5-5.07-23.2-0.29-1.12-0.59-2.25-0.89-3.41-1.02-3.87-2.06-7.73-3.11-11.6-0.3-1.12-0.3-1.12-0.61-2.27-3.38-12.5-3.38-12.5-7.39-24.7-0.45-1.3-0.91-2.61-1.37-3.92-1.3-3.7-2.61-7.4-3.92-11.1-0.59-1.66-1.18-3.33-1.77-4.99-3.88-10.8-8.14-21.5-12.9-32-0.49-1.1-0.99-2.21-1.5-3.36-0.54-1.18-1.07-2.36-1.62-3.57-0.5-1.1-1-2.21-1.51-3.34-1.22-2.79-1.22-2.79-3.37-4.73-0.39-1.11-0.78-2.22-1.18-3.37-1.71-4.76-4.25-8.86-6.84-13.2-3.63-6.32-6.77-12.9-9.98-19.4-0.66-1.33-1.33-2.66-2-4 1.71-2.1 2.66-2.92 5.35-3.49 0.9-0.05 1.8-0.11 2.73-0.17 1-0.07 2-0.14 3.02-0.21 1.56-0.09 1.56-0.09 3.16-0.19 7.73-0.42 7.73-0.42 15.3-1.95 4.86-1.38 9.57-1.46 14.6-1.61 1.11-0.04 2.22-0.07 3.36-0.11 20.1-0.6 40.3-0.79 60.4 0.11zm-38.9 380 1 2z" fill="#727FFB"/>
<path transform="translate(643 10)" d="m0 0c0.94 0.08 1.88 0.17 2.85 0.25 6.46 0.62 6.46 0.62 7.59 1.75 1.62 0.27 3.25 0.49 4.88 0.68 1 0.13 2.01 0.25 3.04 0.38 2.11 0.25 4.22 0.5 6.34 0.75 5.44 0.67 10.5 1.6 15.7 3.19 4.25 0.92 8.52 1.7 12.8 2.5 4.31 0.83 8.15 1.8 12.2 3.5 2.24 0.52 4.49 0.99 6.75 1.44 9.14 1.91 17.5 4.99 26.2 8.37 2.36 0.92 4.74 1.82 7.12 2.69 4.32 1.61 8.57 3.41 12.8 5.2 1.96 0.81 3.92 1.62 5.89 2.42 6.4 2.59 12.7 5.44 18.9 8.38 0.79 0.37 1.57 0.74 2.38 1.11 5.44 2.59 10.7 5.42 15.9 8.39 1.6 0.89 3.21 1.79 4.81 2.68 4.4 2.44 8.79 4.88 13.2 7.32v2c0.57 0.12 1.14 0.23 1.73 0.35 7.57 2.17 14.4 8.02 20.9 12.4 1.09 0.73 1.09 0.73 2.19 1.47 1.77 1.2 3.48 2.49 5.19 3.78v2c0.72 0.25 1.44 0.5 2.19 0.75 3.09 1.37 5.18 3 7.75 5.19 3.7 3.11 7.44 6.16 11.3 9.12 8.79 6.79 16.9 14.1 24.8 21.9 1.74 1.71 3.49 3.42 5.24 5.13 1.51 1.49 3.01 2.98 4.52 4.47 1.03 1.01 2.05 2.01 3.08 3.02 6.1 5.94 11.6 11.8 16.4 18.9 1.89 2.62 3.95 4.96 6.14 7.34 8.43 9.18 15.5 19.2 22.3 29.6 1.94 2.95 3.95 5.82 6 8.69 3.22 4.55 6 9.3 8.76 14.1 1.57 2.77 1.57 2.77 3.62 5.67 2.46 3.81 4.38 7.8 6.37 11.9 1.43 2.86 2.94 5.65 4.51 8.44 3.34 6.07 6.24 12.3 9.11 18.6 0.69 1.52 1.39 3.04 2.09 4.55 3.3 7.11 6.19 14.3 8.98 21.7 0.43 1.12 0.86 2.24 1.3 3.38 3.22 8.42 6.14 16.8 8.58 25.5l1.26 4.08c7.21 23.7 15 51.5 14.7 76.4v3.51l1 1c0.1 2.41 0.14 4.78 0.14 7.19 0.01 1.13 0.01 1.13 0.01 2.28 0.01 2.51 0.01 5.02 0.02 7.53 0 1.75 0 3.5 0.01 5.25v11.1c0 4.68 0.02 9.36 0.03 14 0.01 3.63 0.02 7.26 0.02 10.9 0 1.72 0 3.45 0.01 5.17 0.05 12.5 0.01 25.4-3.24 37.6-0.17 1.71-0.32 3.41-0.44 5.12-0.46 5.41-1.41 10.6-2.56 15.9-0.32 1.54-0.63 3.08-0.94 4.62-0.25 1.22-0.25 1.22-0.5 2.46-0.44 2.31-0.87 4.62-1.29 6.93-0.19 1.06-0.19 1.06-0.38 2.15-0.26 1.41-0.51 2.81-0.75 4.22-0.69 3.77-1.7 7.08-3.14 10.6-0.79 3.43-1.45 6.88-2.12 10.3-0.98 4.06-2.36 7.79-3.88 11.7-0.56 1.49-1.11 2.99-1.65 4.48-3.38 9.2-6.79 18.4-10.4 27.5-0.49 1.28-0.49 1.28-0.99 2.59-3.84 9.96-8.92 19.3-14 28.7-2.31 4.3-4.47 8.64-6.59 13-2.52 5.08-5.33 9.61-8.67 14.2-4.1 5.83-7.66 12.1-10.8 18.5h-2c-0.29 0.97-0.58 1.94-0.88 2.94-1.12 3.06-1.12 3.06-3.12 4.06-1.05 1.64-2.03 3.31-3 5-2.91 4.98-5.8 9-10 13-2.04 2.3-4.03 4.64-6 7-3.29-0.28-4.63-0.56-6.81-3.12-0.54-0.91-1.08-1.82-1.63-2.76-0.6-0.99-1.2-1.99-1.81-3.02-1.61-2.84-3.16-5.71-4.69-8.6-2.58-4.82-5.58-9.11-8.86-13.5-2.53-3.48-4.9-7.05-7.26-10.6-3.28-4.97-6.66-9.78-10.4-14.4-1.49-1.87-2.9-3.78-4.31-5.71-1.92-2.59-3.93-5.06-6.04-7.5-0.49-0.58-0.99-1.15-1.5-1.75-1-1.15-2.01-2.29-3.02-3.43-4.3-4.96-4.3-4.96-4.69-8.57h-2c-1.33-1.52-2.59-3.09-3.82-4.69-4.15-5.21-8.62-9.9-13.4-14.5-2.82-2.75-5.49-5.55-8.06-8.54-4.32-4.99-8.98-9.63-13.7-14.3-0.86-0.86-1.71-1.72-2.59-2.61-5-4.98-10.1-9.74-15.5-14.3-1.38-1.25-2.75-2.5-4.13-3.75-4.9-4.36-10-8.39-15.2-12.4-2.33-1.8-4.64-3.63-6.93-5.5-9.32-7.55-19.2-14.1-29.2-20.7-2.87-1.89-5.73-3.79-8.58-5.71-2.39-1.6-4.78-3.19-7.18-4.78-1.15-0.76-2.3-1.52-3.44-2.29-6.99-4.67-14.1-8.96-21.5-12.9-0.74-0.4-1.48-0.79-2.24-1.2-3.57-2.03-3.57-2.03-7.51-2.74v-2c-1.26-0.37-2.52-0.74-3.82-1.12-4.83-1.61-9.1-3.89-13.5-6.39-4.41-2.48-8.84-4.89-13.6-6.49v-2c-1.15-0.09-1.15-0.09-2.32-0.19-4.31-0.95-7.89-2.67-11.9-4.54-3.85-1.74-7.78-3.02-11.8-4.27-9.6-3.12-19.1-6.55-28.6-10.1-6.08-2.21-12.2-4.09-18.4-5.94-1.39-0.42-2.77-0.84-4.15-1.26-7.45-2.24-14.9-4.32-22.5-5.99-2.52-0.56-5.03-1.14-7.54-1.75-7.45-1.8-14.8-3.46-22.4-4.51-2.42-0.49-2.42-0.49-4.2-1.48-3.51-1.59-7.23-1.69-11-2.01-0.86-0.08-1.72-0.16-2.61-0.24-4.97-0.46-9.93-0.88-14.9-1.3-1.04-0.08-2.08-0.17-3.15-0.26-2.03-0.17-4.06-0.34-6.09-0.5-0.93-0.08-1.86-0.16-2.81-0.24-0.82-0.06-1.64-0.13-2.49-0.19-2.13-0.27-2.13-0.27-5.13-1.27-8.96-1-18-1.26-27-1.56-1.17-0.05-2.34-0.09-3.54-0.13-33.1-1.16-66.1 1.31-99 5.19-1.41 0.16-1.41 0.16-2.85 0.32-5.13 0.65-9.71 1.79-14.6 3.53-2.7 0.87-5.25 1.06-8.07 1.15-4.39 0.28-7.71 0.98-11.7 2.68-4.01 1.47-8.22 2.15-12.4 3.01-9.87 2.08-19.6 4.71-29.3 7.37-0.73 0.2-1.46 0.4-2.21 0.6-4.27 1.19-8.4 2.57-12.5 4.16-2.05 0.79-4.12 1.5-6.2 2.18-0.75 0.25-1.49 0.49-2.26 0.75-1.57 0.51-3.15 1.02-4.73 1.54-1.18 0.38-1.18 0.38-2.39 0.77-0.7 0.23-1.41 0.46-2.14 0.69-2.05 0.71-2.05 0.71-3.95 1.72-2.53 1.24-5.09 2.05-7.78 2.91-6.14 2.01-12.2 4.16-17.7 7.59-2.91 1.69-5.8 2.81-8.96 3.97-7.52 2.83-14.3 6.35-21.3 10.3-4.06 2.22-8.21 4.25-12.4 6.29-1.77 0.87-3.55 1.75-5.32 2.62-1.23 0.62-1.23 0.62-2.5 1.24-2.34 1.17-2.34 1.17-5 3.02-2.18 1.12-2.18 1.12-4.93 0.93-2.25-0.81-2.25-0.81-3.25-2.81-0.2-1.91-0.35-3.83-0.47-5.75-0.08-1.17-0.15-2.33-0.23-3.54-0.16-2.44-0.31-4.89-0.46-7.33-0.08-1.18-0.16-2.35-0.24-3.57-0.11-1.6-0.11-1.6-0.21-3.23-0.31-2.8-0.78-5.29-1.42-8.02-1.46-7.06-1.24-14.2-1.2-21.4v-4.52c0-3.14 0.01-6.27 0.02-9.41 0.02-4.03 0.02-8.06 0.02-12.1 0-3.1 0.01-6.2 0.01-9.31 0.01-1.48 0.01-2.97 0.01-4.46 0-2.06 0.01-4.13 0.02-6.19 0.01-1.18 0.01-2.35 0.01-3.57 0.14-2.63 0.14-2.63 1.14-3.63 0.27-2.22 0.49-4.44 0.68-6.67 0.13-1.38 0.25-2.76 0.37-4.14 0.2-2.19 0.38-4.37 0.57-6.55 0.18-2.1 0.37-4.2 0.56-6.31 0.11-1.26 0.22-2.52 0.33-3.82 0.47-3.4 1.35-6.28 2.49-9.51 0.29-1.54 0.54-3.09 0.74-4.64 0.12-0.85 0.23-1.69 0.35-2.56 0.23-1.73 0.45-3.46 0.68-5.19 0.7-5.11 1.82-9.74 3.55-14.6 0.87-2.6 1.34-5.19 1.74-7.9 0.53-3.55 0.89-5.05 2.94-8.12 0.89-3.51 1.67-7.03 2.41-10.6 1-4.54 2.34-8.3 4.59-12.4 2.27-5.74 4.18-11.6 6.03-17.5 0.97-2.54 0.97-2.54 2.97-4.54 0.49-1.48 0.92-2.99 1.31-4.5 1.86-6.54 4.8-12.4 8.31-18.2 1.41-2.36 2.44-4.79 3.51-7.32 1.5-3.43 3.19-6.77 4.87-10.1 0.34-0.69 0.68-1.38 1.04-2.09 1.47-2.95 2.98-5.82 4.68-8.65 1.37-2.05 1.37-2.05 1.78-4.26 0.63-2.36 1.76-3.21 3.5-4.88 1.17-2.1 1.17-2.1 2-4h2c0.27-0.72 0.53-1.43 0.81-2.17 1.2-2.87 2.6-5.46 4.19-8.14 0.51-0.89 1.03-1.77 1.56-2.68 0.47-0.66 0.95-1.33 1.44-2.01h2c0.37-1.58 0.37-1.58 0.75-3.19 1.03-3.64 2.72-5.97 5.25-8.81l2-3h2c0.25-0.72 0.49-1.44 0.75-2.19 1.39-3.13 3.04-5.18 5.25-7.81 1.78-2.3 3.55-4.61 5.31-6.91 1.48-1.83 3.01-3.45 4.69-5.09 1.23-1.45 2.45-2.91 3.66-4.38 0.9-1.09 1.81-2.17 2.74-3.24 2.11-2.46 3.56-4.27 4.6-7.38 1.54-1.52 1.54-1.52 3.52-3.15 4.63-3.93 8.9-8.16 13.2-12.5 0.74-0.74 1.47-1.48 2.23-2.24 1.07-1.08 1.07-1.08 2.16-2.18 0.68-0.68 1.36-1.37 2.06-2.07 1.14-1.15 2.27-2.32 3.39-3.49 2.19-2.27 3.42-3.38 6.48-4.4 1.69-1.64 3.35-3.31 5-5 2.23-2 4.52-3.94 6.81-5.88 4.59-3.89 9.13-7.81 13.5-11.9 1.86-1.37 3.4-1.8 5.65-2.21v-2c3.11-2.28 6.32-4.19 9.68-6.06 2.68-1.57 4.24-2.77 6.32-4.94 1.33-0.67 2.66-1.33 4-2 0.45-0.47 0.91-0.95 1.37-1.44 2.26-2.16 4.82-3.16 7.63-4.56 1.74-1.09 3.46-2.2 5.18-3.31 15-9.69 15-9.69 18.8-9.69v-2c1.04-0.48 2.08-0.97 3.15-1.47 8.2-3.83 16.4-7.72 24.4-11.8 4.1-2.07 8.22-3.93 12.4-5.7 1.54-0.68 1.54-0.68 3.12-1.38 11.9-5.1 24-9.14 36.5-12.6 2.74-0.8 5.42-1.66 8.11-2.6 3.9-1.35 7.82-2.15 11.9-2.85 2.38-0.46 2.38-0.46 4.61-1.49 3.75-1.42 7.54-1.97 11.5-2.6 5.03-0.4 5.03-0.4 9.25-2.44 2.27-0.36 4.56-0.66 6.84-0.94 0.69-0.08 1.37-0.17 2.07-0.26 2.94-0.36 5.88-0.71 8.82-1.07 2.14-0.26 4.28-0.53 6.42-0.79 1.29-0.16 2.58-0.31 3.9-0.48 2.83-0.15 2.83-0.15 3.95-1.46 2.98-0.39 5.94-0.72 8.94-1 0.92-0.09 1.84-0.17 2.8-0.26 28.8-2.55 58-2.32 86.8 0.26zm-470 321 1 2zm-10 46 1 3zm-4 32 1 3zm0 63v5h1v-5h-1z" fill="#727FFB"/>
<path transform="translate(1587,596)" d="m0 0h1v18h-1v-18z" fill="#020409"/>
<path transform="translate(1587,577)" d="m0 0h1v15h-1v-15z" fill="#020409"/>
<path transform="translate(443,1116)" d="m0 0h1v8h-1v-8z" fill="#020409"/>
<path transform="translate(1436,1194)" d="m0 0h1v6h-1v-6z" fill="#020409"/>
<path transform="translate(443,1181)" d="m0 0h1v6h-1v-6z" fill="#020409"/>
<path transform="translate(967,1586)" d="m0 0 4 1z" fill="#020409"/>
<path transform="translate(1586,561)" d="m0 0 1 4z" fill="#020409"/>
<path transform="translate(1030,1586)" d="m0 0c3 1 3 1 3 1z" fill="#020409"/>
<path transform="translate(927,1581)" d="m0 0 2 1z" fill="#020409"/>
<path transform="translate(389,1435)" d="m0 0 2 1z" fill="#020409"/>
<path transform="translate(723,664)" d="m0 0 2 1z" fill="#7380FC"/>
</svg>
